<svg xmlns="http://www.w3.org/2000/svg" viewBox="0 0 700 120" fill="none">
  <defs><linearGradient id="g1" x1="0" y1="0" x2="1" y2="0"><stop offset="0%" stop-color="#6366F1"/><stop offset="100%" stop-color="#14B8A6"/></linearGradient></defs>
  <rect width="700" height="120" rx="12" fill="#0B1120"/>
  <text x="350" y="22" font-family="Inter,system-ui,sans-serif" font-size="9" font-weight="700" fill="#6366F1" text-anchor="middle" letter-spacing="0.1em">WORKFLOW 3 · HANDS-OFF REPORTER</text>
  <g transform="translate(15,40)">
    <rect x="0" y="0" width="100" height="48" rx="8" fill="#1E293B" stroke="#334155"/>
    <text x="50" y="22" font-family="Inter" font-size="11" font-weight="700" fill="#F1F5F9" text-anchor="middle">Schedule Trigger</text>
    <text x="50" y="36" font-family="Inter" font-size="8" fill="#94A3B8" text-anchor="middle">Daily / Weekly</text>
  </g>
  <path d="M115 64 L140 64" stroke="#6366F1" stroke-width="2" marker-end="url(#ar1)"/>
  <g transform="translate(145,40)">
    <rect x="0" y="0" width="105" height="48" rx="8" fill="#1E293B" stroke="#6366F1" stroke-width="1.5"/>
    <text x="52" y="22" font-family="Inter" font-size="11" font-weight="700" fill="#818CF8" text-anchor="middle">API Data Pull</text>
    <text x="52" y="36" font-family="Inter" font-size="8" fill="#94A3B8" text-anchor="middle">FB + Google + TikTok</text>
  </g>
  <path d="M250 64 L275 64" stroke="#6366F1" stroke-width="2" marker-end="url(#ar1)"/>
  <g transform="translate(280,40)">
    <rect x="0" y="0" width="105" height="48" rx="8" fill="#1E293B" stroke="#14B8A6" stroke-width="1.5"/>
    <text x="52" y="22" font-family="Inter" font-size="11" font-weight="700" fill="#2DD4BF" text-anchor="middle">AI Summary</text>
    <text x="52" y="36" font-family="Inter" font-size="8" fill="#94A3B8" text-anchor="middle">3-Bullet Analysis</text>
  </g>
  <path d="M385 64 L410 64" stroke="#14B8A6" stroke-width="2" marker-end="url(#ar2)"/>
  <g transform="translate(415,40)">
    <rect x="0" y="0" width="130" height="48" rx="8" fill="#1E293B" stroke="#334155"/>
    <text x="65" y="22" font-family="Inter" font-size="11" font-weight="700" fill="#F1F5F9" text-anchor="middle">Dashboard Update</text>
    <text x="65" y="36" font-family="Inter" font-size="8" fill="#94A3B8" text-anchor="middle">Looker Studio / Custom</text>
  </g>
  <path d="M545 64 L570 64" stroke="#F59E0B" stroke-width="2" marker-end="url(#ar3)"/>
  <g transform="translate(575,40)">
    <rect x="0" y="0" width="100" height="48" rx="8" fill="#1E293B" stroke="#F59E0B" stroke-width="1.5"/>
    <text x="50" y="22" font-family="Inter" font-size="11" font-weight="700" fill="#FBBF24" text-anchor="middle">Slack Report</text>
    <text x="50" y="36" font-family="Inter" font-size="8" fill="#94A3B8" text-anchor="middle">Automated Push</text>
  </g>
  <text x="350" y="108" font-family="Inter,system-ui,sans-serif" font-size="8" fill="#10B981" text-anchor="middle">⚡ Impact: 10+ hrs saved per Account Manager · Zero math errors</text>
  <defs>
    <marker id="ar1" markerWidth="8" markerHeight="6" refX="7" refY="3" orient="auto"><path d="M0 0 L8 3 L0 6 Z" fill="#6366F1"/></marker>
    <marker id="ar2" markerWidth="8" markerHeight="6" refX="7" refY="3" orient="auto"><path d="M0 0 L8 3 L0 6 Z" fill="#14B8A6"/></marker>
    <marker id="ar3" markerWidth="8" markerHeight="6" refX="7" refY="3" orient="auto"><path d="M0 0 L8 3 L0 6 Z" fill="#F59E0B"/></marker>
  </defs>
</svg>