<svg xmlns="http://www.w3.org/2000/svg" viewBox="0 0 700 120" fill="none">
  <defs><linearGradient id="g1" x1="0" y1="0" x2="1" y2="0"><stop offset="0%" stop-color="#6366F1"/><stop offset="100%" stop-color="#14B8A6"/></linearGradient></defs>
  <rect width="700" height="120" rx="12" fill="#0B1120"/>
  <text x="350" y="22" font-family="Inter,system-ui,sans-serif" font-size="9" font-weight="700" fill="#14B8A6" text-anchor="middle" letter-spacing="0.1em">WORKFLOW 4 · FRICTIONLESS FINANCE</text>
  <g transform="translate(15,40)">
    <rect x="0" y="0" width="105" height="48" rx="8" fill="#1E293B" stroke="#334155"/>
    <text x="52" y="22" font-family="Inter" font-size="11" font-weight="700" fill="#F1F5F9" text-anchor="middle">Task Complete</text>
    <text x="52" y="36" font-family="Inter" font-size="8" fill="#94A3B8" text-anchor="middle">Project Trigger</text>
  </g>
  <path d="M120 64 L145 64" stroke="#6366F1" stroke-width="2" marker-end="url(#ar1)"/>
  <g transform="translate(150,40)">
    <rect x="0" y="0" width="110" height="48" rx="8" fill="#1E293B" stroke="#6366F1" stroke-width="1.5"/>
    <text x="55" y="22" font-family="Inter" font-size="11" font-weight="700" fill="#818CF8" text-anchor="middle">Generate Invoice</text>
    <text x="55" y="36" font-family="Inter" font-size="8" fill="#94A3B8" text-anchor="middle">QuickBooks / Xero</text>
  </g>
  <path d="M260 64 L285 64" stroke="#6366F1" stroke-width="2" marker-end="url(#ar1)"/>
  <g transform="translate(290,40)">
    <rect x="0" y="0" width="105" height="48" rx="8" fill="#1E293B" stroke="#14B8A6" stroke-width="1.5"/>
    <text x="52" y="22" font-family="Inter" font-size="11" font-weight="700" fill="#2DD4BF" text-anchor="middle">Email Invoice</text>
    <text x="52" y="36" font-family="Inter" font-size="8" fill="#94A3B8" text-anchor="middle">Payment Link</text>
  </g>
  <path d="M395 64 L420 64" stroke="#14B8A6" stroke-width="2" marker-end="url(#ar2)"/>
  <g transform="translate(425,25)">
    <rect x="0" y="0" width="100" height="36" rx="8" fill="#1E293B" stroke="#F59E0B" stroke-width="1.5"/>
    <text x="50" y="23" font-family="Inter" font-size="9" font-weight="700" fill="#FBBF24" text-anchor="middle">Dunning → Reminder</text>
  </g>
  <g transform="translate(425,67)">
    <rect x="0" y="0" width="100" height="36" rx="8" fill="#1E293B" stroke="#10B981" stroke-width="1.5"/>
    <text x="50" y="23" font-family="Inter" font-size="9" font-weight="700" fill="#34D399" text-anchor="middle">Paid → CRM Update</text>
  </g>
  <path d="M525 43 L555 43" stroke="#F59E0B" stroke-width="2" marker-end="url(#ar3)"/>
  <path d="M525 85 L555 85" stroke="#10B981" stroke-width="2" marker-end="url(#ar4)"/>
  <g transform="translate(560,40)">
    <rect x="0" y="0" width="115" height="48" rx="8" fill="#1E293B" stroke="#334155"/>
    <text x="57" y="22" font-family="Inter" font-size="11" font-weight="700" fill="#F1F5F9" text-anchor="middle">Payment Collected</text>
    <text x="57" y="36" font-family="Inter" font-size="8" fill="#94A3B8" text-anchor="middle">Stripe Webhook</text>
  </g>
  <text x="350" y="108" font-family="Inter,system-ui,sans-serif" font-size="8" fill="#10B981" text-anchor="middle">⚡ Impact: Improved cash flow · Eliminated awkward collection conversations</text>
  <defs>
    <marker id="ar1" markerWidth="8" markerHeight="6" refX="7" refY="3" orient="auto"><path d="M0 0 L8 3 L0 6 Z" fill="#6366F1"/></marker>
    <marker id="ar2" markerWidth="8" markerHeight="6" refX="7" refY="3" orient="auto"><path d="M0 0 L8 3 L0 6 Z" fill="#14B8A6"/></marker>
    <marker id="ar3" markerWidth="8" markerHeight="6" refX="7" refY="3" orient="auto"><path d="M0 0 L8 3 L0 6 Z" fill="#F59E0B"/></marker>
    <marker id="ar4" markerWidth="8" markerHeight="6" refX="7" refY="3" orient="auto"><path d="M0 0 L8 3 L0 6 Z" fill="#10B981"/></marker>
  </defs>
</svg>