<svg xmlns="http://www.w3.org/2000/svg" viewBox="0 0 700 120" fill="none">
  <defs><linearGradient id="g1" x1="0" y1="0" x2="1" y2="0"><stop offset="0%" stop-color="#6366F1"/><stop offset="100%" stop-color="#14B8A6"/></linearGradient></defs>
  <rect width="700" height="120" rx="12" fill="#0B1120"/>
  <text x="350" y="22" font-family="Inter,system-ui,sans-serif" font-size="9" font-weight="700" fill="#6366F1" text-anchor="middle" letter-spacing="0.1em">WORKFLOW 1 · SPEED-TO-LEAD ENGINE</text>
  <g transform="translate(25,40)">
    <rect x="0" y="0" width="110" height="48" rx="8" fill="#1E293B" stroke="#334155"/>
    <text x="55" y="22" font-family="Inter" font-size="11" font-weight="700" fill="#F1F5F9" text-anchor="middle">Form Submit</text>
    <text x="55" y="36" font-family="Inter" font-size="8" fill="#94A3B8" text-anchor="middle">Typeform / Webflow</text>
  </g>
  <path d="M135 64 L160 64" stroke="#6366F1" stroke-width="2" marker-end="url(#ar1)"/>
  <g transform="translate(165,40)">
    <rect x="0" y="0" width="110" height="48" rx="8" fill="#1E293B" stroke="#6366F1" stroke-width="1.5"/>
    <circle cx="55" cy="24" r="12" fill="#6366F1" opacity="0.2"/><text x="55" y="28" font-family="Inter" font-size="11" font-weight="700" fill="#818CF8" text-anchor="middle">AI</text>
    <text x="55" y="36" font-family="Inter" font-size="8" fill="#94A3B8" text-anchor="middle">GPT-4 Qualification</text>
  </g>
  <path d="M275 64 L300 64" stroke="#14B8A6" stroke-width="2" marker-end="url(#ar2)"/>
  <g transform="translate(305,40)">
    <rect x="0" y="0" width="110" height="48" rx="8" fill="#1E293B" stroke="#334155"/>
    <text x="55" y="22" font-family="Inter" font-size="11" font-weight="700" fill="#F1F5F9" text-anchor="middle">CRM Sync</text>
    <text x="55" y="36" font-family="Inter" font-size="8" fill="#94A3B8" text-anchor="middle">HubSpot / Salesforce</text>
  </g>
  <path d="M415 64 L440 64" stroke="#14B8A6" stroke-width="2" marker-end="url(#ar2)"/>
  <g transform="translate(445,40)">
    <rect x="0" y="0" width="110" height="48" rx="8" fill="#1E293B" stroke="#334155"/>
    <text x="55" y="22" font-family="Inter" font-size="11" font-weight="700" fill="#F1F5F9" text-anchor="middle">Slack Alert</text>
    <text x="55" y="36" font-family="Inter" font-size="8" fill="#94A3B8" text-anchor="middle">Sales Team Notified</text>
  </g>
  <path d="M555 64 L580 64" stroke="#F59E0B" stroke-width="2" marker-end="url(#ar3)"/>
  <g transform="translate(585,40)">
    <rect x="0" y="0" width="90" height="48" rx="8" fill="#1E293B" stroke="#F59E0B" stroke-width="1.5"/>
    <text x="45" y="22" font-family="Inter" font-size="11" font-weight="700" fill="#FBBF24" text-anchor="middle">Auto Email</text>
    <text x="45" y="36" font-family="Inter" font-size="8" fill="#94A3B8" text-anchor="middle">"Next Steps"</text>
  </g>
  <text x="350" y="108" font-family="Inter,system-ui,sans-serif" font-size="8" fill="#10B981" text-anchor="middle">⚡ Impact: &lt;60s response · 30% higher conversion</text>
  <defs>
    <marker id="ar1" markerWidth="8" markerHeight="6" refX="7" refY="3" orient="auto"><path d="M0 0 L8 3 L0 6 Z" fill="#6366F1"/></marker>
    <marker id="ar2" markerWidth="8" markerHeight="6" refX="7" refY="3" orient="auto"><path d="M0 0 L8 3 L0 6 Z" fill="#14B8A6"/></marker>
    <marker id="ar3" markerWidth="8" markerHeight="6" refX="7" refY="3" orient="auto"><path d="M0 0 L8 3 L0 6 Z" fill="#F59E0B"/></marker>
  </defs>
</svg>