<svg xmlns="http://www.w3.org/2000/svg" viewBox="0 0 700 120" fill="none">
  <defs><linearGradient id="g1" x1="0" y1="0" x2="1" y2="0"><stop offset="0%" stop-color="#6366F1"/><stop offset="100%" stop-color="#14B8A6"/></linearGradient></defs>
  <rect width="700" height="120" rx="12" fill="#0B1120"/>
  <text x="350" y="22" font-family="Inter,system-ui,sans-serif" font-size="9" font-weight="700" fill="#6366F1" text-anchor="middle" letter-spacing="0.1em">WORKFLOW 5 · CONTENT APPROVAL LOOPS</text>
  <g transform="translate(15,40)">
    <rect x="0" y="0" width="110" height="48" rx="8" fill="#1E293B" stroke="#334155"/>
    <text x="55" y="22" font-family="Inter" font-size="11" font-weight="700" fill="#F1F5F9" text-anchor="middle">Asset Uploaded</text>
    <text x="55" y="36" font-family="Inter" font-size="8" fill="#94A3B8" text-anchor="middle">PM Tool / Dropbox</text>
  </g>
  <path d="M125 64 L150 64" stroke="#6366F1" stroke-width="2" marker-end="url(#ar1)"/>
  <g transform="translate(155,40)">
    <rect x="0" y="0" width="120" height="48" rx="8" fill="#1E293B" stroke="#6366F1" stroke-width="1.5"/>
    <text x="60" y="22" font-family="Inter" font-size="11" font-weight="700" fill="#818CF8" text-anchor="middle">Notify Client</text>
    <text x="60" y="36" font-family="Inter" font-size="8" fill="#94A3B8" text-anchor="middle">Slack + Email + Link</text>
  </g>
  <path d="M275 64 L300 64" stroke="#6366F1" stroke-width="2" marker-end="url(#ar1)"/>
  <g transform="translate(305,25)">
    <rect x="0" y="0" width="100" height="36" rx="8" fill="#1E293B" stroke="#10B981" stroke-width="1.5"/>
    <text x="50" y="23" font-family="Inter" font-size="9" font-weight="700" fill="#34D399" text-anchor="middle">✓ Approved → Schedule</text>
  </g>
  <g transform="translate(305,67)">
    <rect x="0" y="0" width="100" height="36" rx="8" fill="#1E293B" stroke="#F59E0B" stroke-width="1.5"/>
    <text x="50" y="23" font-family="Inter" font-size="9" font-weight="700" fill="#FBBF24" text-anchor="middle">✗ Changes → Task</text>
  </g>
  <path d="M405 43 L430 43" stroke="#10B981" stroke-width="2" marker-end="url(#ar4)"/>
  <path d="M405 85 L430 85" stroke="#F59E0B" stroke-width="2" marker-end="url(#ar3)"/>
  <g transform="translate(435,40)">
    <rect x="0" y="0" width="120" height="48" rx="8" fill="#1E293B" stroke="#334155"/>
    <text x="60" y="22" font-family="Inter" font-size="11" font-weight="700" fill="#F1F5F9" text-anchor="middle">Team Notified</text>
    <text x="60" y="36" font-family="Inter" font-size="8" fill="#94A3B8" text-anchor="middle">Loop Closed</text>
  </g>
  <path d="M555 64 L575 64" stroke="#14B8A6" stroke-width="2" marker-end="url(#ar2)" stroke-dasharray="4 3"/>
  <g transform="translate(580,40)">
    <rect x="0" y="0" width="95" height="48" rx="8" fill="#1E293B" stroke="#14B8A6" stroke-width="1.5"/>
    <text x="47" y="22" font-family="Inter" font-size="11" font-weight="700" fill="#2DD4BF" text-anchor="middle">Loop Back</text>
    <text x="47" y="36" font-family="Inter" font-size="8" fill="#94A3B8" text-anchor="middle">Iterate</text>
  </g>
  <text x="350" y="108" font-family="Inter,system-ui,sans-serif" font-size="8" fill="#10B981" text-anchor="middle">⚡ Impact: Projects move 2x faster · Clear audit trail</text>
  <defs>
    <marker id="ar1" markerWidth="8" markerHeight="6" refX="7" refY="3" orient="auto"><path d="M0 0 L8 3 L0 6 Z" fill="#6366F1"/></marker>
    <marker id="ar2" markerWidth="8" markerHeight="6" refX="7" refY="3" orient="auto"><path d="M0 0 L8 3 L0 6 Z" fill="#14B8A6"/></marker>
    <marker id="ar3" markerWidth="8" markerHeight="6" refX="7" refY="3" orient="auto"><path d="M0 0 L8 3 L0 6 Z" fill="#F59E0B"/></marker>
    <marker id="ar4" markerWidth="8" markerHeight="6" refX="7" refY="3" orient="auto"><path d="M0 0 L8 3 L0 6 Z" fill="#10B981"/></marker>
  </defs>
</svg>