<svg xmlns="http://www.w3.org/2000/svg" viewBox="0 0 1100 420" fill="none">
  <defs>
    <linearGradient id="bgGrad" x1="0" y1="0" x2="0" y2="1">
      <stop offset="0%" stop-color="#0B1120"/>
      <stop offset="100%" stop-color="#172032"/>
    </linearGradient>
    <linearGradient id="indigoGrad" x1="0" y1="0" x2="1" y2="1">
      <stop offset="0%" stop-color="#6366F1"/>
      <stop offset="100%" stop-color="#4F46E5"/>
    </linearGradient>
    <linearGradient id="tealGrad" x1="0" y1="0" x2="1" y2="1">
      <stop offset="0%" stop-color="#14B8A6"/>
      <stop offset="100%" stop-color="#0D9488"/>
    </linearGradient>
    <linearGradient id="cardGrad1" x1="0" y1="0" x2="0" y2="1">
      <stop offset="0%" stop-color="#1E293B"/>
      <stop offset="100%" stop-color="#172032"/>
    </linearGradient>
    <linearGradient id="accentLine" x1="0" y1="0" x2="1" y2="0">
      <stop offset="0%" stop-color="#6366F1"/>
      <stop offset="50%" stop-color="#14B8A6"/>
      <stop offset="100%" stop-color="#6366F1"/>
    </linearGradient>
    <filter id="glowSubtle">
      <feGaussianBlur stdDeviation="4" result="blur"/>
      <feMerge><feMergeNode in="blur"/><feMergeNode in="SourceGraphic"/></feMerge>
    </filter>
    <filter id="glowStrong">
      <feGaussianBlur stdDeviation="6" result="blur"/>
      <feMerge><feMergeNode in="blur"/><feMergeNode in="SourceGraphic"/></feMerge>
    </filter>
    <filter id="cardShadow">
      <feDropShadow dx="0" dy="4" stdDeviation="12" flood-color="#6366F1" flood-opacity="0.08"/>
    </filter>
    <marker id="arrowIndigo" markerWidth="10" markerHeight="8" refX="9" refY="4" orient="auto">
      <path d="M0 0 L10 4 L0 8 Z" fill="#6366F1"/>
    </marker>
    <marker id="arrowTeal" markerWidth="10" markerHeight="8" refX="9" refY="4" orient="auto">
      <path d="M0 0 L10 4 L0 8 Z" fill="#14B8A6"/>
    </marker>
  </defs>

  <!-- Background -->
  <rect width="1100" height="420" rx="20" fill="url(#bgGrad)"/>

  <!-- Blueprint grid pattern -->
  <g opacity="0.03">
    <line x1="0" y1="0" x2="1100" y2="0" stroke="#6366F1" stroke-width="0.5"/>
    <line x1="0" y1="52" x2="1100" y2="52" stroke="#6366F1" stroke-width="0.5"/>
    <line x1="0" y1="105" x2="1100" y2="105" stroke="#6366F1" stroke-width="0.5"/>
    <line x1="0" y1="157" x2="1100" y2="157" stroke="#6366F1" stroke-width="0.5"/>
    <line x1="0" y1="210" x2="1100" y2="210" stroke="#6366F1" stroke-width="0.5"/>
    <line x1="0" y1="262" x2="1100" y2="262" stroke="#6366F1" stroke-width="0.5"/>
    <line x1="0" y1="315" x2="1100" y2="315" stroke="#6366F1" stroke-width="0.5"/>
    <line x1="0" y1="367" x2="1100" y2="367" stroke="#6366F1" stroke-width="0.5"/>
    <line x1="0" y1="420" x2="1100" y2="420" stroke="#6366F1" stroke-width="0.5"/>
    <!-- Vertical lines -->
    <line x1="0" y1="0" x2="0" y2="420" stroke="#6366F1" stroke-width="0.5"/>
    <line x1="137" y1="0" x2="137" y2="420" stroke="#6366F1" stroke-width="0.5"/>
    <line x1="275" y1="0" x2="275" y2="420" stroke="#6366F1" stroke-width="0.5"/>
    <line x1="412" y1="0" x2="412" y2="420" stroke="#6366F1" stroke-width="0.5"/>
    <line x1="550" y1="0" x2="550" y2="420" stroke="#6366F1" stroke-width="0.5"/>
    <line x1="687" y1="0" x2="687" y2="420" stroke="#6366F1" stroke-width="0.5"/>
    <line x1="825" y1="0" x2="825" y2="420" stroke="#6366F1" stroke-width="0.5"/>
    <line x1="962" y1="0" x2="962" y2="420" stroke="#6366F1" stroke-width="0.5"/>
    <line x1="1100" y1="0" x2="1100" y2="420" stroke="#6366F1" stroke-width="0.5"/>
  </g>

  <!-- Title bar -->
  <rect x="0" y="0" width="1100" height="52" rx="20" fill="#172032"/>
  <rect x="0" y="26" width="1100" height="26" fill="#172032"/>

  <text x="550" y="32" font-family="Inter, system-ui, sans-serif" font-size="12" font-weight="700" fill="#94A3B8" text-anchor="middle" letter-spacing="0.15em" opacity="0.7">SERVICE DELIVERY BLUEPRINT</text>

  <!-- Top accent line -->
  <rect x="200" y="44" width="700" height="2" rx="1" fill="url(#accentLine)" opacity="0.4"/>

  <!-- Phase indicators -->
  <g opacity="0.08">
    <text x="100" y="72" font-family="JetBrains Mono, monospace" font-size="10" fill="#6366F1">PHASE_01</text>
    <text x="315" y="72" font-family="JetBrains Mono, monospace" font-size="10" fill="#6366F1">PHASE_02</text>
    <text x="530" y="72" font-family="JetBrains Mono, monospace" font-size="10" fill="#6366F1">PHASE_03</text>
    <text x="750" y="72" font-family="JetBrains Mono, monospace" font-size="10" fill="#6366F1">PHASE_04</text>
    <text x="950" y="72" font-family="JetBrains Mono, monospace" font-size="10" fill="#6366F1">PHASE_05</text>
  </g>

  <!-- ===== STEP 1: AUDIT ===== -->
  <g transform="translate(25, 82)">
    <!-- Card -->
    <rect x="0" y="0" width="180" height="230" rx="14" fill="url(#cardGrad1)" stroke="#334155" stroke-width="1" filter="url(#cardShadow)"/>
    <!-- Top accent -->
    <rect x="0" y="0" width="180" height="4" rx="2" fill="#6366F1"/>
    
    <circle cx="90" cy="48" r="24" fill="#6366F1" opacity="0.12"/>
    <circle cx="90" cy="48" r="14" fill="#6366F1" opacity="0.25"/>
    <!-- Magnifying glass icon -->
    <circle cx="90" cy="48" r="7" fill="none" stroke="#818CF8" stroke-width="2"/>
    <line x1="95" y1="53" x2="100" y2="58" stroke="#818CF8" stroke-width="2.5" stroke-linecap="round"/>
    
    <text x="90" y="92" font-family="Inter, system-ui, sans-serif" font-size="15" font-weight="700" fill="#F1F5F9" text-anchor="middle">Audit</text>
    <text x="90" y="108" font-family="Inter, system-ui, sans-serif" font-size="9" fill="#6366F1" text-anchor="middle" font-weight="600">DIAGNOSTICS</text>
    
    <line x1="20" y1="120" x2="160" y2="120" stroke="#1E293B" stroke-width="1"/>
    
    <text x="90" y="140" font-family="Inter, system-ui, sans-serif" font-size="10" fill="#94A3B8" text-anchor="middle" font-weight="500">Deep-dive into your</text>
    <text x="90" y="155" font-family="Inter, system-ui, sans-serif" font-size="10" fill="#94A3B8" text-anchor="middle" font-weight="500">existing tools, manual</text>
    <text x="90" y="170" font-family="Inter, system-ui, sans-serif" font-size="10" fill="#94A3B8" text-anchor="middle" font-weight="500">tasks, and bottlenecks</text>

    <rect x="45" y="192" width="90" height="22" rx="6" fill="#6366F1" opacity="0.1"/>
    <text x="90" y="207" font-family="Inter, system-ui, sans-serif" font-size="8" fill="#818CF8" text-anchor="middle" font-weight="700">Day 1-3</text>
  </g>

  <!-- Arrow 1→2 -->
  <g>
    <line x1="205" y1="197" x2="240" y2="197" stroke="#6366F1" stroke-width="2.5" marker-end="url(#arrowIndigo)"/>
    <circle cx="222" cy="197" r="2.5" fill="#6366F1" filter="url(#glowSubtle)"/>
  </g>

  <!-- ===== STEP 2: BLUEPRINT ===== -->
  <g transform="translate(245, 82)">
    <rect x="0" y="0" width="180" height="230" rx="14" fill="url(#cardGrad1)" stroke="#334155" stroke-width="1" filter="url(#cardShadow)"/>
    <rect x="0" y="0" width="180" height="4" rx="2" fill="#6366F1"/>
    
    <circle cx="90" cy="48" r="24" fill="#6366F1" opacity="0.12"/>
    <circle cx="90" cy="48" r="14" fill="#6366F1" opacity="0.25"/>
    <!-- Blueprint/architecture icon -->
    <rect x="82" y="38" width="16" height="12" rx="2" fill="none" stroke="#818CF8" stroke-width="2"/>
    <line x1="84" y1="42" x2="94" y2="42" stroke="#818CF8" stroke-width="1.5"/>
    <line x1="84" y1="46" x2="94" y2="46" stroke="#818CF8" stroke-width="1.5"/>
    <line x1="82" y1="54" x2="98" y2="54" stroke="#818CF8" stroke-width="2"/>
    <line x1="86" y1="54" x2="86" y2="60" stroke="#818CF8" stroke-width="1.5"/>
    <line x1="94" y1="54" x2="94" y2="60" stroke="#818CF8" stroke-width="1.5"/>
    
    <text x="90" y="92" font-family="Inter, system-ui, sans-serif" font-size="15" font-weight="700" fill="#F1F5F9" text-anchor="middle">Blueprint</text>
    <text x="90" y="108" font-family="Inter, system-ui, sans-serif" font-size="9" fill="#6366F1" text-anchor="middle" font-weight="600">ARCHITECTURE</text>
    
    <line x1="20" y1="120" x2="160" y2="120" stroke="#1E293B" stroke-width="1"/>
    
    <text x="90" y="140" font-family="Inter, system-ui, sans-serif" font-size="10" fill="#94A3B8" text-anchor="middle" font-weight="500">Design the optimal</text>
    <text x="90" y="155" font-family="Inter, system-ui, sans-serif" font-size="10" fill="#94A3B8" text-anchor="middle" font-weight="500">workflow architecture</text>
    <text x="90" y="170" font-family="Inter, system-ui, sans-serif" font-size="10" fill="#94A3B8" text-anchor="middle" font-weight="500">with our engineers</text>

    <rect x="45" y="192" width="90" height="22" rx="6" fill="#6366F1" opacity="0.1"/>
    <text x="90" y="207" font-family="Inter, system-ui, sans-serif" font-size="8" fill="#818CF8" text-anchor="middle" font-weight="700">Day 3-5</text>
  </g>

  <!-- Arrow 2→3 -->
  <g>
    <line x1="425" y1="197" x2="460" y2="197" stroke="#6366F1" stroke-width="2.5" marker-end="url(#arrowIndigo)"/>
    <circle cx="442" cy="197" r="2.5" fill="#6366F1" filter="url(#glowSubtle)"/>
  </g>

  <!-- ===== STEP 3: BUILD (Centerpiece - highlighted) ===== -->
  <g transform="translate(465, 70)">
    <!-- Glow ring -->
    <rect x="-3" y="-3" width="186" height="254" rx="17" fill="none" stroke="#14B8A6" stroke-width="0.5" opacity="0.3" filter="url(#glowStrong)"/>
    <!-- Card -->
    <rect x="0" y="0" width="180" height="248" rx="14" fill="url(#cardGrad1)" stroke="#14B8A6" stroke-width="1.5" filter="url(#cardShadow)"/>
    <rect x="0" y="0" width="180" height="4" rx="2" fill="#14B8A6"/>
    
    <circle cx="90" cy="52" r="26" fill="#14B8A6" opacity="0.1"/>
    <circle cx="90" cy="52" r="16" fill="#14B8A6" opacity="0.2"/>
    <!-- Gear/engineering icon -->
    <circle cx="90" cy="52" r="8" fill="none" stroke="#2DD4BF" stroke-width="2"/>
    <circle cx="90" cy="52" r="3" fill="#2DD4BF"/>
    <line x1="90" y1="40" x2="90" y2="44" stroke="#2DD4BF" stroke-width="2"/>
    <line x1="90" y1="60" x2="90" y2="64" stroke="#2DD4BF" stroke-width="2"/>
    <line x1="78" y1="52" x2="82" y2="52" stroke="#2DD4BF" stroke-width="2"/>
    <line x1="98" y1="52" x2="102" y2="52" stroke="#2DD4BF" stroke-width="2"/>
    
    <text x="90" y="98" font-family="Inter, system-ui, sans-serif" font-size="17" font-weight="800" fill="#F1F5F9" text-anchor="middle">Build</text>
    <text x="90" y="115" font-family="Inter, system-ui, sans-serif" font-size="9" fill="#14B8A6" text-anchor="middle" font-weight="700">ENGINEERING</text>
    
    <line x1="20" y1="128" x2="160" y2="128" stroke="#1E293B" stroke-width="1"/>
    
    <text x="90" y="150" font-family="Inter, system-ui, sans-serif" font-size="10" fill="#94A3B8" text-anchor="middle" font-weight="500">Engineers build and</text>
    <text x="90" y="165" font-family="Inter, system-ui, sans-serif" font-size="10" fill="#94A3B8" text-anchor="middle" font-weight="500">configure your custom</text>
    <text x="90" y="180" font-family="Inter, system-ui, sans-serif" font-size="10" fill="#94A3B8" text-anchor="middle" font-weight="500">workflows internally</text>

    <rect x="30" y="200" width="120" height="24" rx="6" fill="#14B8A6" opacity="0.12"/>
    <text x="90" y="216" font-family="Inter, system-ui, sans-serif" font-size="8" fill="#2DD4BF" text-anchor="middle" font-weight="700">CORE DELIVERY · Days 5-10</text>
  </g>

  <!-- Arrow 3→4 -->
  <g>
    <line x1="645" y1="197" x2="680" y2="197" stroke="#6366F1" stroke-width="2.5" marker-end="url(#arrowIndigo)"/>
    <circle cx="662" cy="197" r="2.5" fill="#6366F1" filter="url(#glowSubtle)"/>
  </g>

  <!-- ===== STEP 4: INTEGRATE ===== -->
  <g transform="translate(685, 82)">
    <rect x="0" y="0" width="180" height="230" rx="14" fill="url(#cardGrad1)" stroke="#334155" stroke-width="1" filter="url(#cardShadow)"/>
    <rect x="0" y="0" width="180" height="4" rx="2" fill="#6366F1"/>
    
    <circle cx="90" cy="48" r="24" fill="#6366F1" opacity="0.12"/>
    <circle cx="90" cy="48" r="14" fill="#6366F1" opacity="0.25"/>
    <!-- Plug/deploy icon -->
    <path d="M82 40 L98 40 L98 48 L82 48 Z" fill="none" stroke="#818CF8" stroke-width="2"/>
    <path d="M86 48 L86 56 L92 56 L92 48" fill="none" stroke="#818CF8" stroke-width="1.5"/>
    <circle cx="89" cy="60" r="2" fill="#818CF8"/>
    
    <text x="90" y="92" font-family="Inter, system-ui, sans-serif" font-size="15" font-weight="700" fill="#F1F5F9" text-anchor="middle">Integrate</text>
    <text x="90" y="108" font-family="Inter, system-ui, sans-serif" font-size="9" fill="#6366F1" text-anchor="middle" font-weight="600">DEPLOYMENT</text>
    
    <line x1="20" y1="120" x2="160" y2="120" stroke="#1E293B" stroke-width="1"/>
    
    <text x="90" y="140" font-family="Inter, system-ui, sans-serif" font-size="10" fill="#94A3B8" text-anchor="middle" font-weight="500">Deploy live into your</text>
    <text x="90" y="155" font-family="Inter, system-ui, sans-serif" font-size="10" fill="#94A3B8" text-anchor="middle" font-weight="500">workspaces and connect</text>
    <text x="90" y="170" font-family="Inter, system-ui, sans-serif" font-size="10" fill="#94A3B8" text-anchor="middle" font-weight="500">to your tech stack</text>

    <rect x="45" y="192" width="90" height="22" rx="6" fill="#6366F1" opacity="0.1"/>
    <text x="90" y="207" font-family="Inter, system-ui, sans-serif" font-size="8" fill="#818CF8" text-anchor="middle" font-weight="700">Day 10-12</text>
  </g>

  <!-- Arrow 4→5 -->
  <g>
    <line x1="865" y1="197" x2="900" y2="197" stroke="#6366F1" stroke-width="2.5" marker-end="url(#arrowIndigo)"/>
    <circle cx="882" cy="197" r="2.5" fill="#6366F1" filter="url(#glowSubtle)"/>
  </g>

  <!-- ===== STEP 5: MANAGE ===== -->
  <g transform="translate(905, 82)">
    <rect x="0" y="0" width="180" height="230" rx="14" fill="url(#cardGrad1)" stroke="#334155" stroke-width="1" filter="url(#cardShadow)"/>
    <rect x="0" y="0" width="180" height="4" rx="2" fill="#14B8A6"/>
    
    <circle cx="90" cy="48" r="24" fill="#14B8A6" opacity="0.1"/>
    <circle cx="90" cy="48" r="14" fill="#14B8A6" opacity="0.2"/>
    <!-- Infinity/operations icon -->
    <path d="M78 48 C78 42, 84 42, 87 48 C90 54, 96 54, 99 48 L102 48 C105 54, 96 54, 99 48" fill="none" stroke="#2DD4BF" stroke-width="2.5" stroke-linecap="round"/>
    
    <text x="90" y="92" font-family="Inter, system-ui, sans-serif" font-size="15" font-weight="700" fill="#F1F5F9" text-anchor="middle">Manage</text>
    <text x="90" y="108" font-family="Inter, system-ui, sans-serif" font-size="9" fill="#14B8A6" text-anchor="middle" font-weight="600">OPERATIONS</text>
    
    <line x1="20" y1="120" x2="160" y2="120" stroke="#1E293B" stroke-width="1"/>
    
    <text x="90" y="140" font-family="Inter, system-ui, sans-serif" font-size="10" fill="#94A3B8" text-anchor="middle" font-weight="500">24/7 monitoring and</text>
    <text x="90" y="155" font-family="Inter, system-ui, sans-serif" font-size="10" fill="#94A3B8" text-anchor="middle" font-weight="500">proactive maintenance</text>
    <text x="90" y="170" font-family="Inter, system-ui, sans-serif" font-size="10" fill="#94A3B8" text-anchor="middle" font-weight="500">with continuous optimization</text>

    <rect x="45" y="192" width="90" height="22" rx="6" fill="#14B8A6" opacity="0.1"/>
    <text x="90" y="207" font-family="Inter, system-ui, sans-serif" font-size="8" fill="#2DD4BF" text-anchor="middle" font-weight="700">Ongoing</text>
  </g>

  <!-- Bottom timeline bar -->
  <g transform="translate(100, 330)">
    <rect x="0" y="0" width="900" height="40" rx="10" fill="#1E293B" stroke="#334155" stroke-width="1"/>
    
    <!-- Timeline track -->
    <line x1="50" y1="20" x2="850" y2="20" stroke="#334155" stroke-width="2"/>
    
    <!-- Active track from 0 to end -->
    <line x1="50" y1="20" x2="820" y2="20" stroke="url(#accentLine)" stroke-width="2" opacity="0.6"/>
    
    <!-- Milestone dots -->
    <circle cx="50" cy="20" r="5" fill="#6366F1"/>
    <circle cx="250" cy="20" r="5" fill="#6366F1"/>
    <circle cx="440" cy="20" r="6" fill="#14B8A6" filter="url(#glowSubtle)"/>
    <circle cx="640" cy="20" r="5" fill="#6366F1"/>
    <circle cx="820" cy="20" r="5" fill="#14B8A6"/>
    
    <!-- Labels -->
    <text x="50" y="38" font-family="Inter, system-ui, sans-serif" font-size="8" fill="#94A3B8" text-anchor="middle" font-weight="600">Discovery</text>
    <text x="250" y="38" font-family="Inter, system-ui, sans-serif" font-size="8" fill="#94A3B8" text-anchor="middle" font-weight="600">Design</text>
    <text x="440" y="38" font-family="Inter, system-ui, sans-serif" font-size="8" fill="#2DD4BF" text-anchor="middle" font-weight="700">Build Sprint</text>
    <text x="640" y="38" font-family="Inter, system-ui, sans-serif" font-size="8" fill="#94A3B8" text-anchor="middle" font-weight="600">Launch</text>
    <text x="820" y="38" font-family="Inter, system-ui, sans-serif" font-size="8" fill="#94A3B8" text-anchor="middle" font-weight="600">Ong Ops</text>
  </g>

  <!-- Bottom tagline -->
  <text x="550" y="403" font-family="Inter, system-ui, sans-serif" font-size="10" fill="#475569" text-anchor="middle" letter-spacing="0.08em">AVERAGE DELIVERY: 12 DAYS FROM AUDIT TO LIVE · UNLIMITED POST-LAUNCH SUPPORT</text>
</svg>